<svg width="24" height="24" viewBox="0 0 24 24" fill="none" xmlns="http://www.w3.org/2000/svg">
<path d="M19.3732 7.74375C19.3216 7.76719 19.2373 7.86094 19.1951 7.94063C19.0216 8.25938 19.0357 8.27813 20.6951 9.9375L22.2185 11.4609L11.3107 11.4844C-0.722109 11.5125 0.266953 11.4844 0.112266 11.8031C0.0185157 12.0047 0.0607032 12.2016 0.243516 12.3516L0.384141 12.4688H11.3013C17.306 12.4688 22.2185 12.4828 22.2185 12.5016C22.2185 12.5203 21.5248 13.2328 20.6716 14.0859C19.2748 15.4875 19.1248 15.6516 19.1248 15.7875C19.1248 16.1063 19.331 16.3125 19.6498 16.3125C19.781 16.3125 20.0154 16.0969 21.8154 14.3063C22.9263 13.2047 23.8591 12.2625 23.892 12.2109C23.9716 12.0844 23.967 11.9297 23.8873 11.775C23.8029 11.6203 19.9873 7.81406 19.842 7.73906C19.7154 7.67813 19.5091 7.67813 19.3732 7.74375Z" fill="#ED6316"/>
</svg>
