<svg width="128" height="128" viewBox="0 0 128 128" fill="none" xmlns="http://www.w3.org/2000/svg">
<path d="M75.7494 4.00006C69.2994 5.15006 60.3994 8.90006 60.0994 10.6501C59.9994 11.1501 61.9494 15.0001 64.4494 19.2501L69.0494 27.0001L67.6494 29.1001C66.4494 30.9001 66.2494 31.7001 66.2494 34.7501C66.2494 37.9001 66.4494 38.6001 67.6994 40.4001C69.5994 43.2001 72.8494 44.7501 76.5494 44.6501L79.3494 44.5501L83.9494 52.3001C86.4494 56.5001 88.7994 60.0501 89.1494 60.0501C90.3994 60.2001 91.0994 59.9001 95.2994 57.4001C98.7994 55.3501 99.7994 54.9501 100.449 55.4001C102.799 57.1001 105.149 58.0001 107.249 58.0001C113.299 58.0001 117.249 53.9001 117.149 47.7501L117.049 44.7501L121.399 42.2501C124.299 40.6001 125.799 39.4001 125.899 38.7501C126.099 37.4001 122.049 29.2001 118.749 24.2501C112.399 14.7001 102.649 7.40006 92.7494 4.70006C89.2494 3.80006 79.3494 3.35006 75.7494 4.00006ZM91.2994 8.50006C101.299 11.0501 109.799 17.5001 116.299 27.5001C118.599 31.1001 121.799 37.3501 121.449 37.6501C121.349 37.7501 119.249 39.0501 116.849 40.5001C112.549 43.0501 112.399 43.1501 112.699 44.7001C113.599 49.5001 113.599 49.7001 112.399 51.5001C110.149 54.8501 105.399 55.1001 102.799 52.0001C102.149 51.1501 101.099 50.5001 100.499 50.5001C99.8994 50.5001 97.4994 51.6501 95.1494 53.0001C92.7994 54.4001 90.7494 55.5001 90.5994 55.5001C90.3994 55.5001 88.4494 52.4501 86.2994 48.7001C80.7494 39.2001 81.2494 39.6501 77.8494 40.4501C75.2994 41.1001 74.8994 41.0501 73.1994 40.1501C69.1494 38.0501 68.4994 33.5001 71.7494 30.2501C72.6994 29.3001 73.4994 28.1501 73.4994 27.7001C73.4994 27.2501 71.5494 23.6001 69.1994 19.6501C66.8494 15.6501 65.0494 12.1501 65.1494 11.8001C65.3994 11.1501 72.0494 8.70006 75.4994 8.05006C79.7494 7.20006 87.0994 7.45006 91.2994 8.50006Z" fill="#242424"/>
<path d="M42.9997 11.75C34.7997 13.4 27.5497 17.45 21.3997 23.9C13.9997 31.7 10.6997 39.5 9.04969 53.25C8.59969 57.2 8.09969 58.7 5.24969 64.75C1.84969 72 1.59969 73.1 2.59969 75.25C3.44969 77.1 5.44969 78 8.79969 78C11.4497 78 11.5997 78.05 11.3497 79.1C10.5997 82.05 9.99969 87.2 10.2497 88.05C10.4497 88.55 10.9997 89.2 11.4997 89.5C12.0997 89.8 12.2997 90.35 12.1497 90.95C11.9997 91.5 12.2497 92.55 12.6997 93.35C13.4997 94.65 13.4997 94.9 12.5497 97.5C11.7497 99.8 11.6997 100.45 12.1997 101.75C13.3997 104.8 18.1997 105.95 29.3997 106H36.0997L37.5497 107.45C38.7497 108.7 38.9997 109.35 38.9997 111.35C38.9997 112.65 38.3997 115.3 37.6997 117.25C36.9997 119.15 36.2997 121.3 36.1497 121.95C35.4997 124.5 35.5997 124.5 63.7497 124.5C88.4997 124.5 89.8997 124.45 90.6997 123.55C91.4497 122.7 91.3497 122.3 88.5497 116.55C85.2497 109.7 84.1997 105.55 84.6497 100.8C84.7997 99.15 86.2997 93.55 87.9497 88.4C91.0497 78.9 91.5497 77 92.7497 70.85C93.3497 67.65 93.3497 67.35 92.4497 66.45C91.6497 65.65 90.7497 65.5 86.0497 65.5C79.5497 65.5 77.9997 65.95 77.9997 67.75C77.9997 71 75.3497 73.5 71.8497 73.5C68.4497 73.5 66.7497 71.75 65.7997 67.45C65.4497 65.75 64.4997 65.5 58.3997 65.5H53.4997V56.55C53.4997 46.65 53.6997 47.25 49.9997 46C44.0997 44 44.1497 36.5 50.0497 34.5C51.2497 34.1 52.5497 33.55 52.8997 33.35C53.7497 32.8 53.7497 12.45 52.8997 11.6C52.1497 10.85 47.1997 10.9 42.9997 11.75ZM49.4997 22.7V30.4L47.9997 31C41.8497 33.55 39.8497 41.1 43.8497 46.4C44.5497 47.3 46.0997 48.55 47.2997 49.15L49.4997 50.2V57.85V65.5H43.5497C36.8997 65.5 34.9997 65.95 34.9997 67.5C34.9997 69.4 33.5997 71.95 32.0497 72.7C31.2497 73.15 29.5997 73.5 28.4497 73.5C26.7997 73.5 26.0997 73.2 24.6997 71.8C23.4997 70.6 22.9997 69.65 22.9997 68.6C22.9997 66.05 21.6497 65.5 15.1497 65.5C12.0497 65.5 9.49969 65.35 9.49969 65.2C9.49969 65.05 10.1497 63.4 10.9997 61.55C12.0997 59 12.6497 56.65 13.1997 51.7C14.5997 40 17.5997 33.35 24.9997 25.95C29.0497 21.85 30.4497 20.8 34.4997 18.8C39.1997 16.5 43.9997 15.1 47.6497 15.05L49.4997 15V22.7ZM19.7497 71.35C21.4997 75.5 25.4497 77.8 29.9997 77.4C33.4497 77.05 36.0997 75.2 37.5497 72.05L38.7497 69.55L44.1497 69.5H49.4997V78.3C49.4997 83.4 49.6997 87.45 49.9997 88.05C50.2997 88.6 51.0497 89 51.7997 89C56.0997 89 58.8497 93.95 56.7497 98C55.9497 99.55 53.6997 101 52.0497 101C49.7497 101 49.4997 101.95 49.4997 111.55V120.5H45.1997C40.9997 120.5 40.9497 120.5 41.2997 119.4C43.8997 111.25 43.5497 107.4 39.8497 104.15C37.6497 102.2 36.8997 102.1 26.4997 101.85C21.9497 101.75 17.6497 101.4 16.8997 101.1L15.5497 100.55L16.4997 97.85C17.2497 95.7 17.3497 94.75 16.9497 93.3C16.5497 91.85 16.5997 91.35 17.1997 90.7C17.6497 90.3 17.9997 89.7 17.9997 89.45C17.9997 88.7 16.0497 87 15.2497 87C13.9497 87 13.9497 85.95 14.9997 80.8C16.2497 74.65 16.1497 74.5 11.2497 74.5C5.74969 74.5 5.19969 74.05 6.74969 71L7.54969 69.5H13.2497H18.9997L19.7497 71.35ZM62.7497 71.35C66.0497 79.2 77.3497 79.55 80.6997 71.95L81.7497 69.5H85.3997C87.3497 69.5 88.9997 69.6 88.9997 69.75C88.9997 71.2 86.4997 80.55 84.2497 87.3C79.5997 101.35 79.5497 106.65 83.9997 115.9C85.0997 118.2 85.9997 120.2 85.9997 120.3C85.9997 120.4 78.6997 120.5 69.7497 120.5H53.4997V112.55V104.6L55.0497 104.25C57.2497 103.75 60.3497 100.5 60.9997 97.9C62.1997 93.55 60.5997 89.2 57.0497 86.95C55.7997 86.15 54.4997 85.5 54.1497 85.5C53.6497 85.5 53.4997 83.75 53.4997 77.5V69.5H57.7497H61.9997L62.7497 71.35Z" fill="#242424"/>
</svg>
