<svg width="32" height="32" viewBox="0 0 32 32" fill="none" xmlns="http://www.w3.org/2000/svg">
<path d="M25.8316 10.325C25.7628 10.3562 25.6503 10.4812 25.5941 10.5875C25.3628 11.0125 25.3816 11.0375 27.5941 13.25L29.6253 15.2813L15.0816 15.3125C-0.962161 15.35 0.356589 15.3125 0.150339 15.7375C0.0253387 16.0062 0.0815887 16.2687 0.325339 16.4688L0.512839 16.625H15.0691C23.0753 16.625 29.6253 16.6437 29.6253 16.6687C29.6253 16.6937 28.7003 17.6437 27.5628 18.7813C25.7003 20.65 25.5003 20.8687 25.5003 21.05C25.5003 21.475 25.7753 21.75 26.2003 21.75C26.3753 21.75 26.6878 21.4625 29.0878 19.075C30.5691 17.6062 31.8128 16.35 31.8566 16.2813C31.9628 16.1125 31.9566 15.9063 31.8503 15.7C31.7378 15.4938 26.6503 10.4187 26.4566 10.3187C26.2878 10.2375 26.0128 10.2375 25.8316 10.325Z" fill="white"/>
</svg>
