<svg width="32" height="32" viewBox="0 0 32 32" fill="none" xmlns="http://www.w3.org/2000/svg">
<g clip-path="url(#clip0_343_146)">
<path d="M6.16841 21.675C6.23716 21.6438 6.34966 21.5188 6.40591 21.4125C6.63716 20.9875 6.61841 20.9625 4.40591 18.75L2.37466 16.7188L16.9184 16.6875C32.9622 16.65 31.6434 16.6875 31.8497 16.2625C31.9747 15.9938 31.9184 15.7313 31.6747 15.5313L31.4872 15.375L16.9309 15.375C8.92466 15.375 2.37466 15.3563 2.37466 15.3313C2.37466 15.3063 3.29966 14.3563 4.43716 13.2188C6.29966 11.35 6.49966 11.1313 6.49966 10.95C6.49966 10.525 6.22466 10.25 5.79966 10.25C5.62466 10.25 5.31216 10.5375 2.91216 12.925C1.43091 14.3938 0.187161 15.65 0.143412 15.7188C0.0371614 15.8875 0.0434118 16.0938 0.149661 16.3C0.262162 16.5063 5.34966 21.5813 5.54341 21.6813C5.71216 21.7625 5.98716 21.7625 6.16841 21.675Z" fill="white"/>
</g>
<defs>
<clipPath id="clip0_343_146">
<rect width="32" height="32" fill="white" transform="translate(32 32) rotate(180)"/>
</clipPath>
</defs>
</svg>
