<svg width="128" height="128" viewBox="0 0 128 128" fill="none" xmlns="http://www.w3.org/2000/svg">
<path fill-rule="evenodd" clip-rule="evenodd" d="M51.8715 3.2645C47.029 6.555 40.2115 9.441 31 12.1005L28.75 12.75L28.6185 30.212C28.51 44.608 28.622 48.208 29.257 50.712C32.6465 64.086 45.244 77.484 60.1285 83.5465L64 85.1235L67.8715 83.5465C82.756 77.484 95.3535 64.086 98.743 50.712C99.378 48.208 99.49 44.608 99.3815 30.212L99.25 12.75L97 12.1005C87.7885 9.441 80.971 6.555 76.1285 3.2645C74.2875 2.0135 74.16 2 64 2C53.84 2 53.7125 2.0135 51.8715 3.2645ZM50.582 8.497C45.767 11.307 39.0355 14.099 34.8245 15.033L31.8995 15.6815L32.136 31.716C32.3965 49.366 32.538 50.357 35.7105 56.75C40.2625 65.9215 50.7205 75.358 61.375 79.907L64 81.028L66.625 79.907C77.2795 75.358 87.7375 65.9215 92.2895 56.75C95.462 50.357 95.6035 49.366 95.864 31.716L96.1005 15.6815L93.1755 15.033C89.0035 14.1075 82.282 11.329 77.2855 8.464L72.988 6L63.869 6.0325L54.75 6.065L50.582 8.497ZM53.25 10.5915C49.9365 12.6755 45.2055 14.872 40 16.743L35.75 18.271V33.7605V49.25L37.0725 52.3895C39.2975 57.67 41.5625 61 46.0145 65.5345C50.4055 70.0075 57.017 74.7315 61.484 76.5875L64 77.6335L66.516 76.5875C70.018 75.1325 76.6625 70.6735 80.3255 67.3205C83.7785 64.16 87.7465 59.0125 89.646 55.2285C92.351 49.841 92.5265 48.396 92.383 32.7405L92.25 18.291L90.25 17.575C84.418 15.4875 79.338 13.2485 75.8865 11.244L72.023 9L63.8865 9.0095L55.75 9.019L53.25 10.5915ZM51.75 15.7905C49 17.271 44.9855 19.1045 42.8295 19.866L38.909 21.25L39.1195 34.25C39.319 46.574 39.394 47.4195 40.56 50.5075C43.6945 58.805 51.983 67.439 61.375 72.189L64 73.517L66.625 72.189C75.985 67.4555 84.3165 58.7765 87.44 50.5075C88.6055 47.421 88.6815 46.566 88.8875 34.233L89.1045 21.2155L86.2035 20.301C84.6075 19.798 80.466 17.9495 76.9995 16.1935L70.697 13L63.7235 13.05L56.75 13.0995L51.75 15.7905ZM75.446 30.6865C74.729 31.061 70.7125 33.8875 66.5205 36.9685C62.3285 40.0495 58.609 42.6815 58.255 42.817C57.868 42.966 56.899 41.8915 55.823 40.1205C53.922 36.9905 52.4725 36 49.794 36C46.583 36 44.148 39.397 45.0465 42.622C45.754 45.1625 52.3875 55.2885 53.7515 55.9095C55.388 56.6555 57.2535 56.663 58.658 55.93C59.943 55.259 79.2025 41.308 80.9395 39.7895C83.935 37.171 83.8885 32.832 80.8445 30.976C78.9725 29.8345 77.2555 29.7425 75.446 30.6865ZM67.606 41C62.337 44.85 57.587 48 57.0505 48C56.369 48 55.3675 46.832 53.727 44.125C52.436 41.9935 51.1375 40.097 50.8415 39.91C50.213 39.512 48.5 40.3175 48.5 41.0105C48.5 41.272 50.0185 43.9635 51.875 46.991C54.189 50.766 55.5385 52.497 56.1675 52.498C57.0015 52.5 77.7965 37.7 79.0035 36.246C79.6985 35.4085 79.094 34 78.0395 34C77.57 34 72.875 37.15 67.606 41ZM6.75 57.2015C5.925 57.5655 4.865 58.296 4.394 58.825C3.217 60.1475 2 63.191 2 64.813C2 67.0265 11.8625 96.0875 13.479 98.636C14.439 100.15 16.2875 101.875 18.8005 103.603C20.918 105.059 23.99 107.223 25.6275 108.412L28.6045 110.575L26.9345 111.412C24.6645 112.55 24.016 114.099 24.0075 118.4C23.999 122.561 24.874 124.786 26.8065 125.521C27.4985 125.785 33.9985 126 41.25 126C48.5015 126 55.0015 125.785 55.6935 125.521C57.8315 124.708 58.6205 122.431 58.4235 117.638C58.263 113.731 58.1445 113.322 56.847 112.206C56.0755 111.543 54.8985 111 54.2315 111C53.3185 111 52.9415 110.66 52.7045 109.625C51.0625 102.443 49.2795 96.0195 48.421 94.194C47.069 91.3175 43.74 88.422 40.248 87.0855C38.718 86.5 35.267 84.451 32.579 82.5315C29.343 80.2215 27.0255 78.9335 25.7205 78.7195L23.75 78.397L20.313 70.216C16.67 61.544 14.587 58.403 11.6715 57.185C9.6595 56.3445 8.684 56.3475 6.75 57.2015ZM116.218 57.1825C113.376 58.4645 111.276 61.673 107.687 70.216L104.25 78.397L102.28 78.7195C100.975 78.9335 98.657 80.2215 95.421 82.5315C92.733 84.451 89.282 86.5 87.752 87.0855C84.26 88.422 80.931 91.3175 79.579 94.194C78.7205 96.0195 76.9375 102.443 75.2955 109.625C75.0585 110.66 74.6815 111 73.7685 111C73.1015 111 71.9245 111.543 71.153 112.206C69.8555 113.322 69.737 113.731 69.5765 117.638C69.3795 122.431 70.1685 124.708 72.3065 125.521C73.947 126.145 99.553 126.145 101.193 125.521C103.126 124.786 104.001 122.561 103.993 118.4C103.984 114.094 103.336 112.55 101.056 111.408L99.376 110.565L102.563 108.28C104.316 107.023 107.325 104.925 109.25 103.618C111.388 102.166 113.37 100.315 114.344 98.8605C115.418 97.257 117.597 91.4825 121.017 81.176C125.34 68.1465 126.048 65.564 125.783 63.795C124.987 58.49 120.381 55.305 116.218 57.1825ZM7.631 61.2645C5.336 62.872 5.583 64.385 10.707 80.0805C13.3455 88.162 16.056 95.5865 16.731 96.579C17.4485 97.6355 20.4375 100.065 23.9395 102.438C29.7865 106.401 31.6475 108.101 32.263 110.041C32.547 110.935 33.125 111 40.8175 111C48.4395 111 49.0475 110.934 48.809 110.125C48.667 109.644 48.0615 107.113 47.4625 104.5C45.305 95.081 43.715 92.5885 38.6775 90.725C37.3425 90.231 33.9035 88.178 31.035 86.1635C28.167 84.1485 25.333 82.5 24.7375 82.5C23.2395 82.5 22 84.029 22 85.877C22 87.2925 22.6 87.86 29 92.5C33.3335 95.642 36 97.9035 36 98.4375C36 99.471 35.0615 100.5 34.119 100.5C32.903 100.5 19.507 90.464 18.7375 88.976C17.6345 86.8435 17.8105 83.925 19.161 81.949L20.322 80.25L18.363 75.5C13.737 64.2825 11.5065 60.5 9.5175 60.5C9.0805 60.5 8.2315 60.844 7.631 61.2645ZM116.368 61.877C115.008 63.2965 113.062 67.244 109.65 75.5L107.688 80.25L108.844 81.949C110.19 83.927 110.363 86.848 109.26 88.98C108.481 90.487 95.132 100.5 93.9015 100.5C92.9405 100.5 92 99.4795 92 98.4375C92 97.9035 94.6665 95.642 99 92.5C105.61 87.7075 106 87.3315 106 85.741C106 83.992 104.609 82.5 102.979 82.5C102.539 82.5 99.833 84.1485 96.965 86.1635C94.0965 88.178 90.6575 90.231 89.3225 90.725C84.285 92.5885 82.695 95.081 80.5375 104.5C79.9385 107.113 79.333 109.644 79.191 110.125C78.9525 110.934 79.559 111 87.1555 111H95.3785L96.01 109.476C96.731 107.736 98.792 105.987 105.41 101.501C107.974 99.7635 110.617 97.539 111.284 96.558C111.95 95.577 114.655 88.162 117.293 80.0805C122.417 64.385 122.664 62.872 120.369 61.2645C118.805 60.1685 117.867 60.3125 116.368 61.877ZM28 118.5V122H41.25H54.5V118.5V115H41.25H28V118.5ZM73.5 118.5V122H86.75H100V118.5V115H86.75H73.5V118.5Z" fill="#242424"/>
</svg>
