<svg width="128" height="128" viewBox="0 0 128 128" fill="none" xmlns="http://www.w3.org/2000/svg">
<path d="M57.7495 0.299934C53.5995 0.89994 50.1995 1.64994 49.6495 2.09994C49.1995 2.44994 48.9995 4.29993 48.9995 7.99994V13.3999L47.1495 13.9999C46.0995 14.3499 43.3495 15.5999 41.0495 16.7999C38.7995 17.9999 36.6495 18.8499 36.2995 18.6499C35.9995 18.4499 34.0995 16.9999 32.0995 15.3999C30.0995 13.7999 28.0995 12.4999 27.6495 12.4999C26.4495 12.4999 16.9495 22.3499 14.4495 26.2499C11.4995 30.7499 9.64951 34.5499 9.89951 35.4999C9.99951 35.8999 11.8995 37.6999 14.0995 39.4499C17.3995 42.0999 18.0495 42.7999 17.7995 43.6999C16.5495 47.8999 15.4995 52.3499 15.4995 53.4499C15.4995 54.1499 15.2995 54.9999 15.0995 55.2999C14.8995 55.5999 12.4995 56.3999 9.79951 57.0499C6.64951 57.7999 4.64951 58.5499 4.29951 59.0999C3.59951 60.2499 4.64951 70.0499 5.99951 75.2499C7.39951 80.4999 9.94951 86.4999 10.8995 86.8999C11.5495 87.1499 19.5495 85.7999 21.2995 85.1499C21.5995 85.0499 22.5995 86.1499 23.5995 87.5999C24.5495 89.0499 26.4495 91.4499 27.7495 92.8999L30.1495 95.5499L28.0495 99.9999C26.9495 102.4 25.9995 104.9 25.9995 105.45C25.9995 106.5 29.2495 109.2 33.3495 111.55C35.6995 112.9 37.0995 112.55 37.3995 110.6C37.5495 109.8 36.7995 109.05 34.0495 107.25C32.0995 105.95 30.4995 104.7 30.4995 104.45C30.4995 104.2 31.3995 102.2 32.4995 99.9999C33.5995 97.7999 34.4995 95.6499 34.4995 95.1999C34.4995 94.7499 33.2495 92.9999 31.6995 91.3499C30.1495 89.6499 27.7995 86.5999 26.4495 84.5999C23.5995 80.4499 23.5995 80.4499 17.2495 81.9499C15.0495 82.4999 13.0995 82.7499 12.8995 82.5499C11.5995 81.2999 8.84951 70.9999 8.24951 64.9499C7.94951 61.9499 7.99951 61.5499 8.79951 61.3499C9.34951 61.1999 11.4495 60.6999 13.4995 60.2499C15.5495 59.7499 17.5995 59.1999 18.0495 58.9499C18.5995 58.6499 19.0495 57.1999 19.4495 54.1999C19.7995 51.7999 20.5995 48.1499 21.2495 46.0499C21.9495 43.9499 22.4995 41.9999 22.4995 41.6499C22.4995 41.1999 19.6495 38.6999 14.4995 34.6499C14.0495 34.2499 17.3495 28.7999 20.3495 25.0499C23.4495 21.1499 27.1495 17.4999 27.9495 17.4999C28.1995 17.4999 30.0495 18.8499 32.1495 20.4999C34.1995 22.1499 36.2495 23.4999 36.6995 23.4999C37.1995 23.4999 39.0495 22.5999 40.8495 21.4999C42.6995 20.3999 45.9995 18.7999 48.1995 17.9499C50.4495 17.0999 52.3995 16.1499 52.5995 15.7999C52.7995 15.4999 52.9995 12.9499 52.9995 10.1499V5.04993L55.3995 4.64994C58.4495 4.14994 69.5495 4.14994 72.5995 4.64994L74.9495 5.04993L75.0995 10.6499L75.2495 16.1999L78.7495 17.4999C82.4995 18.8999 86.2995 20.7999 88.7495 22.4499C89.5995 23.0499 90.6495 23.4999 91.1995 23.4999C91.6995 23.4999 93.7995 22.1499 95.8495 20.4999C97.9495 18.8499 99.7995 17.4999 100.05 17.4999C100.85 17.4999 104.55 21.1499 107.65 25.0499C110.65 28.7999 113.95 34.2499 113.5 34.6499C108.35 38.6999 105.5 41.1999 105.5 41.6499C105.5 41.9999 106.05 43.9499 106.75 46.0499C107.4 48.1499 108.2 51.7999 108.55 54.1999C108.95 57.1999 109.4 58.6499 109.95 58.9499C110.4 59.1999 112.45 59.7499 114.5 60.2499C116.55 60.6999 118.65 61.1999 119.2 61.3499C120 61.5499 120.05 61.9499 119.75 64.9499C119.15 70.9999 116.4 81.2999 115.1 82.5499C114.9 82.7499 112.95 82.4999 110.75 81.9499C104.4 80.4499 104.4 80.4499 101.55 84.5999C100.2 86.5999 97.8495 89.6499 96.2995 91.3499C94.7495 92.9999 93.4995 94.7499 93.4995 95.1999C93.4995 95.6499 94.3995 97.7999 95.4995 99.9999C96.5995 102.2 97.4995 104.2 97.4995 104.45C97.4995 104.7 95.8995 105.95 93.9495 107.25C91.1995 109.05 90.4495 109.8 90.5995 110.6C90.8995 112.55 92.2995 112.9 94.6495 111.55C98.7495 109.2 102 106.5 102 105.45C102 104.9 101.05 102.4 99.9495 99.9999L97.8495 95.5499L100.25 92.8999C101.55 91.4499 103.45 89.0499 104.4 87.5999C105.4 86.1499 106.4 85.0499 106.7 85.1499C108.45 85.7999 116.45 87.1499 117.1 86.8999C118.05 86.4999 120.6 80.4999 122 75.2499C123.35 70.0499 124.4 60.2499 123.7 59.0999C123.35 58.5499 121.3 57.7999 118.2 57.0499C115.5 56.3499 113.1 55.5499 112.9 55.2999C112.7 54.9999 112.5 54.1499 112.5 53.4499C112.5 52.3499 111.45 47.8999 110.2 43.6999C109.95 42.7999 110.6 42.0999 113.9 39.4499C116.1 37.6999 118 35.8999 118.1 35.4999C118.4 34.4999 116.45 30.5999 113.35 25.9999C110.65 21.8999 101.55 12.4999 100.3 12.4999C99.8995 12.4999 97.8995 13.7999 95.8995 15.3999C93.8995 16.9999 91.9995 18.4499 91.6995 18.6499C91.3495 18.8499 89.1995 17.9999 86.9495 16.7999C84.6495 15.5999 81.8995 14.3499 80.8995 13.9999L78.9995 13.3999V7.99994C78.9995 4.29993 78.7995 2.44994 78.3995 2.09994C76.7495 0.799934 62.7995 -0.400063 57.7495 0.299934Z" fill="#242424"/>
<path d="M57.7498 24.55C50.6498 25.75 44.2498 29.15 38.6998 34.7C34.1998 39.2 31.5498 43.45 29.5998 49.4C28.4998 52.75 28.2998 54.1 28.2998 60C28.2998 65.9 28.4998 67.25 29.5998 70.6C32.1998 78.45 37.6498 85.75 43.9998 89.85C46.9498 91.75 46.9998 91.75 46.9998 94.1C46.9998 95.9 46.7998 96.5 46.2498 96.5C44.9998 96.5 42.0498 99.55 41.4498 101.45C41.1498 102.5 40.9998 105.75 41.0998 109.1C41.1998 114.05 41.3998 115.15 42.2998 116.3C44.0498 118.65 45.7998 119.65 48.6998 119.9C51.1998 120.1 51.3998 120.2 51.6998 121.55C52.0998 123.5 55.3498 126.65 57.7998 127.4C60.4498 128.2 67.5498 128.2 70.1998 127.4C72.6498 126.65 75.8998 123.5 76.2998 121.55C76.5998 120.2 76.7998 120.1 79.2998 119.9C82.1998 119.65 83.9498 118.65 85.6998 116.3C86.6498 115.05 86.7498 114.2 86.7498 108.05C86.7498 101.2 86.7498 101.15 85.2998 99.25C84.4998 98.2 83.1998 97.1 82.3998 96.8C81.1498 96.35 80.9998 96.05 80.9998 94C80.9998 91.8 81.0498 91.7 83.9998 89.8C90.6498 85.55 96.7998 76.95 98.7498 69.25C105.25 43.9 83.4998 20.2 57.7498 24.55ZM73.8998 29.65C75.9498 30.35 78.8498 31.7 80.3498 32.6C83.9998 34.75 89.2998 40.05 91.3998 43.6C100.15 58.4 95.7998 77.3 81.4998 86.75C77.6998 89.25 76.9998 90.3 76.9998 93.8V96H63.9998H50.9998V93.8C50.9998 90.3 50.3498 89.35 46.0998 86.35C41.0998 82.85 37.9998 79.35 35.4998 74.2C29.9498 63.05 31.0998 50.8 38.6498 40.65C42.7998 35.1 50.1998 30.3 57.0998 28.75C61.8498 27.65 69.3498 28.05 73.8998 29.65ZM81.7498 101.25C82.9498 102.4 82.9998 102.8 82.9998 108C82.9998 113.2 82.9498 113.6 81.7498 114.75C80.6998 115.8 80.0998 116 77.3498 116C73.7498 116 73.2998 116.3 72.7998 119.05C72.5998 120.1 71.8498 121.45 70.9498 122.3C69.4498 123.7 69.3498 123.75 63.9998 123.75C58.6498 123.75 58.5498 123.7 57.0498 122.3C56.1998 121.45 55.4998 120.65 55.4998 120.45C55.4998 120.2 57.4498 119.95 59.7998 119.9C63.2998 119.8 64.2498 119.6 64.6998 118.85C65.0998 118.25 65.0998 117.75 64.6998 117.1C64.1998 116.35 62.9998 116.2 55.5498 116C44.6498 115.7 44.9998 115.95 44.9998 107.9C44.9998 102.8 45.0498 102.4 46.2498 101.25L47.4498 100H63.9998H80.5498L81.7498 101.25Z" fill="#242424"/>
<path d="M61.1 37.6C60.45 37.95 59 40.15 57.4 43.3L54.75 48.45L50.5 49C42.95 50 41.25 51 41.25 54.55C41.25 56.35 41.65 56.85 45.45 60.7L49.6 64.85L48.8 69.1C47.6 75.35 47.7 76.8 49.45 78.55C50.35 79.45 51.45 80 52.3 80C53.05 80 55.85 78.85 58.6 77.5L63.5 74.95L68.4 77.5C71.15 78.85 73.95 80 74.7 80C75.55 80 76.65 79.45 77.55 78.55C79.25 76.8 79.35 75.7 78.2 69.3L77.45 64.85L81.45 60.8C85.85 56.35 86.5 54.95 85.25 52.5C84.25 50.5 82.5 49.8 76.7 49L72.15 48.4L69.95 43.9C66.85 37.6 64.55 35.95 61.1 37.6ZM66.7 46.45C69.75 52.5 69.1 52.05 76.3 53C78.85 53.35 81.2 53.8 81.55 54.05C82.1 54.35 81.15 55.6 77.9 58.85C75.35 61.4 73.5 63.7 73.5 64.25C73.5 64.8 73.85 67.55 74.35 70.35C74.8 73.15 75.05 75.65 74.85 75.85C74.65 76.05 72 74.9 69 73.3L63.5 70.45L58 73.3C54.95 74.85 52.35 76 52.15 75.8C51.95 75.6 52.15 73.15 52.65 70.35C53.1 67.55 53.5 64.8 53.5 64.25C53.5 63.7 51.65 61.4 49.15 58.85C45.85 55.55 44.9 54.35 45.45 54.05C45.8 53.8 48.2 53.35 50.7 53.05C57.8 52.1 57.25 52.5 60.3 46.45C61.8 43.45 63.25 41 63.5 41C63.75 41 65.2 43.45 66.7 46.45Z" fill="#242424"/>
</svg>
