<svg width="24" height="24" viewBox="0 0 24 24" fill="none" xmlns="http://www.w3.org/2000/svg">
<g clip-path="url(#clip0_275_141)">
<path d="M1.51883 0.15942C1.3032 0.234419 0.937578 0.478168 0.712578 0.712543C-0.0467972 1.46254 7.77736e-05 0.740667 7.77736e-05 12C7.77736e-05 23.25 -0.0467972 22.5375 0.712578 23.2875C1.46258 24.0469 0.750078 24 12.0001 24C23.2501 24 22.5376 24.0469 23.2876 23.2875C24.047 22.5375 24.0001 23.25 24.0001 12C24.0001 0.750044 24.047 1.46254 23.2876 0.712543C22.5376 -0.0468311 23.2595 4.3869e-05 11.9626 0.00941849C3.27195 0.00941849 1.8657 0.0375443 1.51883 0.15942ZM22.3126 1.12504C22.5563 1.24692 22.7532 1.44379 22.8751 1.68754C23.0626 2.05317 23.0626 2.22192 23.0626 12C23.0626 21.7782 23.0626 21.9469 22.8751 22.3125C22.7532 22.5563 22.5563 22.7532 22.3126 22.875C21.947 23.0625 21.7782 23.0625 12.0001 23.0625C2.22195 23.0625 2.0532 23.0625 1.68758 22.875C1.44383 22.7532 1.24695 22.5563 1.12508 22.3125C0.937578 21.9469 0.937578 21.7782 0.937578 12C0.937578 2.22192 0.937578 2.05317 1.12508 1.68754C1.23758 1.46254 1.4532 1.24692 1.66883 1.13442C2.00633 0.946918 2.2407 0.946918 11.9813 0.937544C21.7876 0.937544 21.947 0.937544 22.3126 1.12504Z" fill="#242424"/>
<path d="M6.1875 2.09062C6.01875 2.175 5.95312 2.2875 5.95312 2.48438C5.95312 2.99062 5.98125 3 11.0625 3C16.1438 3 16.1719 2.99062 16.1719 2.48438C16.1719 1.97812 16.1438 1.96875 11.0625 1.96875C7.50938 1.96875 6.36563 1.99687 6.1875 2.09062Z" fill="#242424"/>
<path d="M17.2688 2.175C17.2031 2.24062 17.1562 2.37187 17.1562 2.48437C17.1562 2.74687 17.3344 2.90625 17.625 2.90625C17.9156 2.90625 18.0938 2.74687 18.0938 2.48437C18.0938 2.22187 17.9156 2.0625 17.625 2.0625C17.4938 2.0625 17.3344 2.10937 17.2688 2.175Z" fill="#242424"/>
<path d="M11.7189 9.32812C7.97829 10.7812 4.82829 12.0469 4.71579 12.1312C4.46266 12.3187 4.44391 12.5719 4.66891 12.7781C4.75329 12.8531 5.40016 13.1437 6.09391 13.4062C6.78766 13.6781 7.40641 13.9406 7.46266 14.0062C7.51891 14.0625 7.93141 15.0375 8.38141 16.1719C8.83141 17.3062 9.27204 18.3094 9.34703 18.3937C9.62828 18.7125 9.85329 18.5812 10.9689 17.4844C11.5689 16.8937 12.0845 16.4062 12.1127 16.4062C12.1408 16.4062 13.0408 17.1 14.1095 17.9531C15.1877 18.8062 16.1345 19.5 16.2189 19.5C16.3033 19.5 16.4439 19.425 16.5189 19.3312C16.6689 19.1719 19.2189 7.60312 19.2189 7.11562C19.2189 6.81562 19.0595 6.65625 18.7595 6.66562C18.6189 6.66562 15.4595 7.86562 11.7189 9.32812ZM16.9689 13.3219C16.397 15.9656 15.9283 18.1406 15.9095 18.15C15.872 18.1875 11.3533 14.5781 11.372 14.5219C11.4002 14.4469 17.9439 8.46562 17.9814 8.48438C17.9908 8.49375 17.5408 10.6687 16.9689 13.3219ZM13.4064 9.69375C13.4064 9.75 7.90329 13.0312 7.80954 13.0312C7.68766 13.0312 6.37516 12.525 6.37516 12.4687C6.37516 12.4406 7.95016 11.8031 9.87204 11.0531C11.7845 10.2937 13.3689 9.675 13.3877 9.66562C13.397 9.65625 13.4064 9.675 13.4064 9.69375ZM14.672 10.2094C14.5127 10.35 13.4439 11.3344 12.2814 12.3937L10.1627 14.325L9.94704 15.1969C9.55329 16.725 9.61891 16.725 9.00016 15.1875C8.44704 13.8281 8.44704 13.8281 8.64391 13.6875C8.90641 13.5 14.8502 9.94687 14.9064 9.94687C14.9252 9.9375 14.822 10.0594 14.672 10.2094ZM10.9689 16.0781C10.8002 16.2562 10.6408 16.3875 10.622 16.3781C10.6127 16.3594 10.6408 16.1812 10.697 15.975C10.8658 15.3094 10.8658 15.3187 11.0814 15.5437L11.2877 15.75L10.9689 16.0781Z" fill="#242424"/>
</g>
<defs>
<clipPath id="clip0_275_141">
<rect width="24" height="24" fill="white"/>
</clipPath>
</defs>
</svg>
