<svg width="24" height="24" viewBox="0 0 24 24" fill="none" xmlns="http://www.w3.org/2000/svg">
<g clip-path="url(#clip0_275_246)">
<path d="M1.51834 0.159298C1.30271 0.234297 0.93709 0.478046 0.71209 0.712421C-0.0472855 1.46242 -0.000410508 0.740545 -0.000410508 11.9999C-0.000410508 23.2499 -0.0472855 22.5374 0.71209 23.2874C1.46209 24.0468 0.74959 23.9999 11.9996 23.9999C23.2496 23.9999 22.5371 24.0468 23.2871 23.2874C24.0465 22.5374 23.9996 23.2499 23.9996 11.9999C23.9996 0.749922 24.0465 1.46242 23.2871 0.712421C22.5371 -0.0469532 23.259 -7.82013e-05 11.9621 0.00929642C3.27147 0.00929642 1.86521 0.0374222 1.51834 0.159298ZM22.3121 1.12492C22.5558 1.2468 22.7527 1.44367 22.8746 1.68742C23.0621 2.05305 23.0621 2.2218 23.0621 11.9999C23.0621 21.778 23.0621 21.9468 22.8746 22.3124C22.7527 22.5562 22.5558 22.753 22.3121 22.8749C21.9465 23.0624 21.7777 23.0624 11.9996 23.0624C2.22147 23.0624 2.05271 23.0624 1.68709 22.8749C1.44334 22.753 1.24646 22.5562 1.12459 22.3124C0.93709 21.9468 0.93709 21.778 0.93709 11.9999C0.93709 2.2218 0.93709 2.05305 1.12459 1.68742C1.23709 1.46242 1.45271 1.2468 1.66834 1.1343C2.00584 0.946796 2.24022 0.946796 11.9808 0.937422C21.7871 0.937422 21.9465 0.937422 22.3121 1.12492Z" fill="white"/>
<path d="M6.1875 2.09062C6.01875 2.175 5.95312 2.2875 5.95312 2.48438C5.95312 2.99062 5.98125 3 11.0625 3C16.1438 3 16.1719 2.99062 16.1719 2.48438C16.1719 1.97812 16.1438 1.96875 11.0625 1.96875C7.50938 1.96875 6.36563 1.99687 6.1875 2.09062Z" fill="white"/>
<path d="M17.2688 2.175C17.2031 2.24062 17.1562 2.37187 17.1562 2.48437C17.1562 2.74687 17.3344 2.90625 17.625 2.90625C17.9156 2.90625 18.0938 2.74687 18.0938 2.48437C18.0938 2.22187 17.9156 2.0625 17.625 2.0625C17.4938 2.0625 17.3344 2.10937 17.2688 2.175Z" fill="white"/>
<path d="M11.7184 9.32812C7.9778 10.7812 4.8278 12.0469 4.7153 12.1312C4.46217 12.3187 4.44342 12.5719 4.66842 12.7781C4.7528 12.8531 5.39967 13.1437 6.09342 13.4062C6.78717 13.6781 7.40592 13.9406 7.46217 14.0062C7.51842 14.0625 7.93092 15.0375 8.38092 16.1719C8.83092 17.3062 9.27155 18.3094 9.34655 18.3937C9.6278 18.7125 9.8528 18.5812 10.9684 17.4844C11.5684 16.8937 12.084 16.4062 12.1122 16.4062C12.1403 16.4062 13.0403 17.1 14.109 17.9531C15.1872 18.8062 16.134 19.5 16.2184 19.5C16.3028 19.5 16.4434 19.425 16.5184 19.3312C16.6684 19.1719 19.2184 7.60312 19.2184 7.11562C19.2184 6.81562 19.059 6.65625 18.759 6.66562C18.6184 6.66562 15.459 7.86562 11.7184 9.32812ZM16.9684 13.3219C16.3965 15.9656 15.9278 18.1406 15.909 18.15C15.8715 18.1875 11.3528 14.5781 11.3715 14.5219C11.3997 14.4469 17.9434 8.46562 17.9809 8.48438C17.9903 8.49375 17.5403 10.6687 16.9684 13.3219ZM13.4059 9.69375C13.4059 9.75 7.9028 13.0312 7.80905 13.0312C7.68717 13.0312 6.37467 12.525 6.37467 12.4687C6.37467 12.4406 7.94967 11.8031 9.87155 11.0531C11.784 10.2937 13.3684 9.675 13.3872 9.66562C13.3965 9.65625 13.4059 9.675 13.4059 9.69375ZM14.6715 10.2094C14.5122 10.35 13.4434 11.3344 12.2809 12.3937L10.1622 14.325L9.94655 15.1969C9.5528 16.725 9.61842 16.725 8.99967 15.1875C8.44655 13.8281 8.44655 13.8281 8.64342 13.6875C8.90592 13.5 14.8497 9.94687 14.9059 9.94687C14.9247 9.9375 14.8215 10.0594 14.6715 10.2094ZM10.9684 16.0781C10.7997 16.2562 10.6403 16.3875 10.6215 16.3781C10.6122 16.3594 10.6403 16.1812 10.6965 15.975C10.8653 15.3094 10.8653 15.3187 11.0809 15.5437L11.2872 15.75L10.9684 16.0781Z" fill="white"/>
</g>
<defs>
<clipPath id="clip0_275_246">
<rect width="24" height="24" fill="white"/>
</clipPath>
</defs>
</svg>
