<svg width="24" height="24" viewBox="0 0 24 24" fill="none" xmlns="http://www.w3.org/2000/svg">
<g clip-path="url(#clip0_275_135)">
<path d="M1.51883 0.15942C1.3032 0.234419 0.937578 0.478168 0.712578 0.712543C-0.0467972 1.46254 7.77736e-05 0.740667 7.77736e-05 12C7.77736e-05 23.25 -0.0467972 22.5375 0.712578 23.2875C1.46258 24.0469 0.750078 24 12.0001 24C23.2501 24 22.5376 24.0469 23.2876 23.2875C24.047 22.5375 24.0001 23.25 24.0001 12C24.0001 0.750044 24.047 1.46254 23.2876 0.712543C22.5376 -0.0468311 23.2595 4.3869e-05 11.9626 0.00941849C3.27195 0.00941849 1.8657 0.0375443 1.51883 0.15942ZM22.3126 1.12504C22.5563 1.24692 22.7532 1.44379 22.8751 1.68754C23.0626 2.05317 23.0626 2.22192 23.0626 12C23.0626 21.7782 23.0626 21.9469 22.8751 22.3125C22.7532 22.5563 22.5563 22.7532 22.3126 22.875C21.947 23.0625 21.7782 23.0625 12.0001 23.0625C2.22195 23.0625 2.0532 23.0625 1.68758 22.875C1.44383 22.7532 1.24695 22.5563 1.12508 22.3125C0.937578 21.9469 0.937578 21.7782 0.937578 12C0.937578 2.22192 0.937578 2.05317 1.12508 1.68754C1.23758 1.46254 1.4532 1.24692 1.66883 1.13442C2.00633 0.946918 2.2407 0.946918 11.9813 0.937544C21.7876 0.937544 21.947 0.937544 22.3126 1.12504Z" fill="#242424"/>
<path d="M6.1875 2.09062C6.01875 2.175 5.95312 2.2875 5.95312 2.48438C5.95312 2.99062 5.98125 3 11.0625 3C16.1438 3 16.1719 2.99062 16.1719 2.48438C16.1719 1.97812 16.1438 1.96875 11.0625 1.96875C7.50938 1.96875 6.36563 1.99687 6.1875 2.09062Z" fill="#242424"/>
<path d="M17.2688 2.175C17.2031 2.24062 17.1562 2.37187 17.1562 2.48437C17.1562 2.74687 17.3344 2.90625 17.625 2.90625C17.9156 2.90625 18.0938 2.74687 18.0938 2.48437C18.0938 2.22187 17.9156 2.0625 17.625 2.0625C17.4938 2.0625 17.3344 2.10937 17.2688 2.175Z" fill="#242424"/>
<path d="M10.5 8.625C9.68437 8.69063 9.40312 8.8125 9.31875 9.15938C9.2625 9.36563 9.30937 9.45938 9.60937 9.70313C9.99375 10.0313 10.1156 10.4156 10.125 11.3625C10.125 11.9906 9.96562 12.8156 9.825 12.9094C9.58125 13.05 8.84062 11.7094 8.11875 9.84375C7.92187 9.35625 7.69687 8.89688 7.6125 8.83125C7.425 8.69063 4.575 8.67188 4.30312 8.8125C4.2 8.86875 4.125 9.00938 4.125 9.15C4.125 9.62813 5.42812 12.5344 6.27187 13.9406C7.82812 16.5469 9.76875 17.8594 12.3281 18.0563C13.2375 18.1312 13.3594 18.0375 13.4344 17.2406C13.4625 16.95 13.575 16.5375 13.6875 16.3219L13.8844 15.9281L14.1562 16.0969C14.3062 16.1813 14.6531 16.5188 14.925 16.8469C15.8344 17.9531 16.2094 18.0938 18.2437 18.0938C19.5281 18.0938 19.6781 18.075 19.8187 17.9156C20.2312 17.4656 19.7062 16.4344 18.3562 15.0375C17.5406 14.175 17.4281 14.025 17.475 13.8188C17.5125 13.6875 17.9625 12.975 18.4875 12.2438C19.7531 10.4625 20.1281 9.65625 19.875 9.19688C19.7719 9 19.725 9 17.8875 9.01875L16.0031 9.04688L15.6094 9.9375C14.8969 11.5875 13.8844 13.0781 13.65 12.8438C13.5844 12.7781 13.5469 12.1781 13.5469 11.175C13.5375 10.3125 13.5281 9.49688 13.5187 9.34688C13.4906 8.925 13.2187 8.7375 12.4969 8.68125C11.3437 8.57813 11.2125 8.56875 10.5 8.625ZM12.6094 11.25C12.6094 12.7688 12.6281 12.9188 12.8156 13.2844C13.05 13.7063 13.5094 13.9406 13.9312 13.8375C14.5312 13.6875 15.4312 12.5063 16.2375 10.8L16.6875 9.84375H17.7656C18.4406 9.84375 18.8437 9.88125 18.8437 9.9375C18.8437 10.0781 18.45 10.6875 17.5687 11.9156C16.7531 13.0406 16.5 13.5188 16.5 13.9219C16.5 14.325 16.8281 14.8219 17.5312 15.5156C18.15 16.1156 18.8437 16.9594 18.8437 17.1C18.8437 17.175 17.0719 17.175 16.6969 17.1C16.4906 17.0531 16.2281 16.8563 15.9094 16.5094C14.6062 15.1125 14.25 14.8875 13.6312 15.0938C13.1156 15.2719 12.7219 15.9 12.5156 16.9031C12.4687 17.1469 12.4406 17.1563 12.0656 17.1C10.7812 16.9125 9.90937 16.5375 8.93437 15.75C7.86562 14.8875 6.65625 13.0031 5.6625 10.65L5.26875 9.70313L6.1125 9.675C6.58125 9.66563 6.99375 9.68438 7.03125 9.72188C7.06875 9.75938 7.2375 10.1531 7.40625 10.5938C8.25 12.825 9.0375 13.8844 9.85312 13.875C10.5375 13.8656 10.9594 13.125 11.0344 11.7844C11.0812 10.9781 10.9875 10.1063 10.8281 9.72188C10.7625 9.57188 10.8281 9.55313 11.6812 9.58125L12.6094 9.60938V11.25Z" fill="#242424"/>
</g>
<defs>
<clipPath id="clip0_275_135">
<rect width="24" height="24" fill="white"/>
</clipPath>
</defs>
</svg>
