<svg width="24" height="24" viewBox="0 0 24 24" fill="none" xmlns="http://www.w3.org/2000/svg">
<g clip-path="url(#clip0_275_240)">
<path d="M1.51834 0.159298C1.30271 0.234297 0.93709 0.478046 0.71209 0.712421C-0.0472855 1.46242 -0.000410508 0.740545 -0.000410508 11.9999C-0.000410508 23.2499 -0.0472855 22.5374 0.71209 23.2874C1.46209 24.0468 0.74959 23.9999 11.9996 23.9999C23.2496 23.9999 22.5371 24.0468 23.2871 23.2874C24.0465 22.5374 23.9996 23.2499 23.9996 11.9999C23.9996 0.749922 24.0465 1.46242 23.2871 0.712421C22.5371 -0.0469532 23.259 -7.82013e-05 11.9621 0.00929642C3.27147 0.00929642 1.86521 0.0374222 1.51834 0.159298ZM22.3121 1.12492C22.5558 1.2468 22.7527 1.44367 22.8746 1.68742C23.0621 2.05305 23.0621 2.2218 23.0621 11.9999C23.0621 21.778 23.0621 21.9468 22.8746 22.3124C22.7527 22.5562 22.5558 22.753 22.3121 22.8749C21.9465 23.0624 21.7777 23.0624 11.9996 23.0624C2.22147 23.0624 2.05271 23.0624 1.68709 22.8749C1.44334 22.753 1.24646 22.5562 1.12459 22.3124C0.93709 21.9468 0.93709 21.778 0.93709 11.9999C0.93709 2.2218 0.93709 2.05305 1.12459 1.68742C1.23709 1.46242 1.45271 1.2468 1.66834 1.1343C2.00584 0.946796 2.24022 0.946796 11.9808 0.937422C21.7871 0.937422 21.9465 0.937422 22.3121 1.12492Z" fill="white"/>
<path d="M6.1875 2.09062C6.01875 2.175 5.95312 2.2875 5.95312 2.48438C5.95312 2.99062 5.98125 3 11.0625 3C16.1438 3 16.1719 2.99062 16.1719 2.48438C16.1719 1.97812 16.1438 1.96875 11.0625 1.96875C7.50938 1.96875 6.36563 1.99687 6.1875 2.09062Z" fill="white"/>
<path d="M17.2688 2.175C17.2031 2.24062 17.1562 2.37187 17.1562 2.48437C17.1562 2.74687 17.3344 2.90625 17.625 2.90625C17.9156 2.90625 18.0938 2.74687 18.0938 2.48437C18.0938 2.22187 17.9156 2.0625 17.625 2.0625C17.4938 2.0625 17.3344 2.10937 17.2688 2.175Z" fill="white"/>
<path d="M10.5 8.625C9.68437 8.69063 9.40312 8.8125 9.31875 9.15938C9.2625 9.36563 9.30937 9.45938 9.60937 9.70313C9.99375 10.0313 10.1156 10.4156 10.125 11.3625C10.125 11.9906 9.96562 12.8156 9.825 12.9094C9.58125 13.05 8.84062 11.7094 8.11875 9.84375C7.92187 9.35625 7.69687 8.89688 7.6125 8.83125C7.425 8.69063 4.575 8.67188 4.30312 8.8125C4.2 8.86875 4.125 9.00938 4.125 9.15C4.125 9.62813 5.42812 12.5344 6.27187 13.9406C7.82812 16.5469 9.76875 17.8594 12.3281 18.0563C13.2375 18.1312 13.3594 18.0375 13.4344 17.2406C13.4625 16.95 13.575 16.5375 13.6875 16.3219L13.8844 15.9281L14.1562 16.0969C14.3062 16.1813 14.6531 16.5188 14.925 16.8469C15.8344 17.9531 16.2094 18.0938 18.2437 18.0938C19.5281 18.0938 19.6781 18.075 19.8187 17.9156C20.2312 17.4656 19.7062 16.4344 18.3562 15.0375C17.5406 14.175 17.4281 14.025 17.475 13.8188C17.5125 13.6875 17.9625 12.975 18.4875 12.2438C19.7531 10.4625 20.1281 9.65625 19.875 9.19688C19.7719 9 19.725 9 17.8875 9.01875L16.0031 9.04688L15.6094 9.9375C14.8969 11.5875 13.8844 13.0781 13.65 12.8438C13.5844 12.7781 13.5469 12.1781 13.5469 11.175C13.5375 10.3125 13.5281 9.49688 13.5187 9.34688C13.4906 8.925 13.2187 8.7375 12.4969 8.68125C11.3437 8.57813 11.2125 8.56875 10.5 8.625ZM12.6094 11.25C12.6094 12.7688 12.6281 12.9188 12.8156 13.2844C13.05 13.7063 13.5094 13.9406 13.9312 13.8375C14.5312 13.6875 15.4312 12.5063 16.2375 10.8L16.6875 9.84375H17.7656C18.4406 9.84375 18.8437 9.88125 18.8437 9.9375C18.8437 10.0781 18.45 10.6875 17.5687 11.9156C16.7531 13.0406 16.5 13.5188 16.5 13.9219C16.5 14.325 16.8281 14.8219 17.5312 15.5156C18.15 16.1156 18.8437 16.9594 18.8437 17.1C18.8437 17.175 17.0719 17.175 16.6969 17.1C16.4906 17.0531 16.2281 16.8563 15.9094 16.5094C14.6062 15.1125 14.25 14.8875 13.6312 15.0938C13.1156 15.2719 12.7219 15.9 12.5156 16.9031C12.4687 17.1469 12.4406 17.1563 12.0656 17.1C10.7812 16.9125 9.90937 16.5375 8.93437 15.75C7.86562 14.8875 6.65625 13.0031 5.6625 10.65L5.26875 9.70313L6.1125 9.675C6.58125 9.66563 6.99375 9.68438 7.03125 9.72188C7.06875 9.75938 7.2375 10.1531 7.40625 10.5938C8.25 12.825 9.0375 13.8844 9.85312 13.875C10.5375 13.8656 10.9594 13.125 11.0344 11.7844C11.0812 10.9781 10.9875 10.1063 10.8281 9.72188C10.7625 9.57188 10.8281 9.55313 11.6812 9.58125L12.6094 9.60938V11.25Z" fill="white"/>
</g>
<defs>
<clipPath id="clip0_275_240">
<rect width="24" height="24" fill="white"/>
</clipPath>
</defs>
</svg>
