<svg width="24" height="24" viewBox="0 0 24 24" fill="none" xmlns="http://www.w3.org/2000/svg">
<g clip-path="url(#clip0_275_147)">
<path d="M1.51883 0.15942C1.3032 0.234419 0.937578 0.478168 0.712578 0.712543C-0.0467972 1.46254 7.77736e-05 0.740667 7.77736e-05 12C7.77736e-05 23.25 -0.0467972 22.5375 0.712578 23.2875C1.46258 24.0469 0.750078 24 12.0001 24C23.2501 24 22.5376 24.0469 23.2876 23.2875C24.047 22.5375 24.0001 23.25 24.0001 12C24.0001 0.750044 24.047 1.46254 23.2876 0.712543C22.5376 -0.0468311 23.2595 4.3869e-05 11.9626 0.00941849C3.27195 0.00941849 1.8657 0.0375443 1.51883 0.15942ZM22.3126 1.12504C22.5563 1.24692 22.7532 1.44379 22.8751 1.68754C23.0626 2.05317 23.0626 2.22192 23.0626 12C23.0626 21.7782 23.0626 21.9469 22.8751 22.3125C22.7532 22.5563 22.5563 22.7532 22.3126 22.875C21.947 23.0625 21.7782 23.0625 12.0001 23.0625C2.22195 23.0625 2.0532 23.0625 1.68758 22.875C1.44383 22.7532 1.24695 22.5563 1.12508 22.3125C0.937578 21.9469 0.937578 21.7782 0.937578 12C0.937578 2.22192 0.937578 2.05317 1.12508 1.68754C1.23758 1.46254 1.4532 1.24692 1.66883 1.13442C2.00633 0.946918 2.2407 0.946918 11.9813 0.937544C21.7876 0.937544 21.947 0.937544 22.3126 1.12504Z" fill="#242424"/>
<path d="M6.1875 2.09062C6.01875 2.175 5.95312 2.2875 5.95312 2.48438C5.95312 2.99062 5.98125 3 11.0625 3C16.1438 3 16.1719 2.99062 16.1719 2.48438C16.1719 1.97812 16.1438 1.96875 11.0625 1.96875C7.50938 1.96875 6.36563 1.99687 6.1875 2.09062Z" fill="#242424"/>
<path d="M17.2688 2.175C17.2031 2.24062 17.1562 2.37187 17.1562 2.48437C17.1562 2.74687 17.3344 2.90625 17.625 2.90625C17.9156 2.90625 18.0938 2.74687 18.0938 2.48437C18.0938 2.22187 17.9156 2.0625 17.625 2.0625C17.4938 2.0625 17.3344 2.10937 17.2688 2.175Z" fill="#242424"/>
<path d="M10.7252 5.06257C6.69393 5.79382 3.79705 9.41257 4.06893 13.3688C4.14393 14.4469 4.40643 15.5063 4.8283 16.3969L5.1658 17.0907L4.63143 18.6751C3.84393 21.0469 3.8908 21.0938 6.26268 20.3063L7.84705 19.7719L8.5408 20.1094C9.72205 20.6626 10.5471 20.8407 12.0471 20.8407C13.2096 20.8407 13.4533 20.8126 14.2033 20.5876C16.8377 19.7907 18.8533 17.7751 19.6502 15.1407C19.8752 14.3907 19.9033 14.1469 19.9033 12.9376C19.9033 11.7282 19.8752 11.4844 19.6502 10.7344C18.8533 8.10007 16.8096 6.05632 14.2033 5.29695C13.2658 5.0157 11.5877 4.91257 10.7252 5.06257ZM13.7346 6.12195C16.2564 6.82507 18.2158 8.82195 18.8533 11.3438C19.0221 12.0094 19.0221 13.8657 18.8533 14.5313C18.2064 17.0907 16.2283 19.0782 13.5939 19.8001C13.3596 19.8563 12.6658 19.9126 12.0471 19.9126C10.7346 19.9126 10.0783 19.7719 8.92518 19.2188C8.49393 19.0126 8.04393 18.8438 7.9408 18.8438C7.8283 18.8438 7.20955 19.0126 6.57205 19.2188C5.92518 19.4251 5.3908 19.5751 5.37205 19.5657C5.36268 19.5469 5.51268 19.0126 5.71893 18.3657C5.92518 17.7282 6.09393 17.1094 6.09393 16.9969C6.09393 16.8938 5.92518 16.4438 5.71893 16.0126C5.1658 14.8594 5.02518 14.2032 5.02518 12.8907C5.02518 11.7094 5.10018 11.3063 5.5033 10.3126C6.34705 8.2407 8.3533 6.52507 10.4064 6.1032C10.6877 6.04695 11.0064 5.98132 11.1096 5.96257C11.4564 5.8782 13.2564 5.9907 13.7346 6.12195Z" fill="#242424"/>
<path d="M8.953 8.05313C8.17487 8.54063 7.8655 9.19688 7.85612 10.4063C7.83737 12.8063 9.39362 15.2625 11.6624 16.4063C12.7499 16.95 13.5561 17.1562 14.6249 17.1562C15.6749 17.1562 16.2561 16.9406 16.753 16.3688C17.4092 15.6281 17.3155 15.3094 16.0874 14.0813C15.1499 13.1531 15.103 13.125 14.6999 13.125C14.3436 13.125 14.2124 13.1813 13.8467 13.5C13.1999 14.0719 13.0592 14.0344 12.028 13.0031C10.9967 11.9719 10.9592 11.8313 11.5311 11.1844C11.8499 10.8188 11.9061 10.6875 11.9061 10.3406C11.9061 9.94688 11.8686 9.89063 11.0436 9.0375C9.88112 7.82813 9.553 7.67813 8.953 8.05313ZM10.2374 9.53438C10.6405 9.9375 10.9686 10.3031 10.9686 10.3688C10.9686 10.425 10.8561 10.5656 10.7249 10.6969C10.5936 10.8188 10.4249 11.0344 10.3499 11.175C10.1811 11.5031 10.1811 12.2156 10.3499 12.5438C10.5467 12.9188 12.2905 14.5969 12.5905 14.7094C13.2186 14.9438 13.8842 14.7938 14.3342 14.3063C14.4655 14.175 14.6061 14.0625 14.6624 14.0625C14.728 14.0625 15.0936 14.3906 15.4967 14.7938C16.2092 15.5063 16.2186 15.525 16.0686 15.7406C15.6749 16.2938 14.3155 16.4063 13.0686 15.9844C11.0905 15.3281 9.6655 13.8938 9.028 11.9344C8.75612 11.1094 8.69987 9.8625 8.90612 9.46875C9.03737 9.21563 9.37487 8.8125 9.45925 8.8125C9.48737 8.8125 9.84362 9.14063 10.2374 9.53438Z" fill="#242424"/>
</g>
<defs>
<clipPath id="clip0_275_147">
<rect width="24" height="24" fill="white"/>
</clipPath>
</defs>
</svg>
