<svg width="24" height="24" viewBox="0 0 24 24" fill="none" xmlns="http://www.w3.org/2000/svg">
<g clip-path="url(#clip0_275_252)">
<path d="M1.51834 0.159298C1.30271 0.234297 0.93709 0.478046 0.71209 0.712421C-0.0472855 1.46242 -0.000410508 0.740545 -0.000410508 11.9999C-0.000410508 23.2499 -0.0472855 22.5374 0.71209 23.2874C1.46209 24.0468 0.74959 23.9999 11.9996 23.9999C23.2496 23.9999 22.5371 24.0468 23.2871 23.2874C24.0465 22.5374 23.9996 23.2499 23.9996 11.9999C23.9996 0.749922 24.0465 1.46242 23.2871 0.712421C22.5371 -0.0469532 23.259 -7.82013e-05 11.9621 0.00929642C3.27147 0.00929642 1.86521 0.0374222 1.51834 0.159298ZM22.3121 1.12492C22.5558 1.2468 22.7527 1.44367 22.8746 1.68742C23.0621 2.05305 23.0621 2.2218 23.0621 11.9999C23.0621 21.778 23.0621 21.9468 22.8746 22.3124C22.7527 22.5562 22.5558 22.753 22.3121 22.8749C21.9465 23.0624 21.7777 23.0624 11.9996 23.0624C2.22147 23.0624 2.05271 23.0624 1.68709 22.8749C1.44334 22.753 1.24646 22.5562 1.12459 22.3124C0.93709 21.9468 0.93709 21.778 0.93709 11.9999C0.93709 2.2218 0.93709 2.05305 1.12459 1.68742C1.23709 1.46242 1.45271 1.2468 1.66834 1.1343C2.00584 0.946796 2.24022 0.946796 11.9808 0.937422C21.7871 0.937422 21.9465 0.937422 22.3121 1.12492Z" fill="white"/>
<path d="M6.1875 2.09062C6.01875 2.175 5.95312 2.2875 5.95312 2.48438C5.95312 2.99062 5.98125 3 11.0625 3C16.1438 3 16.1719 2.99062 16.1719 2.48438C16.1719 1.97812 16.1438 1.96875 11.0625 1.96875C7.50938 1.96875 6.36563 1.99687 6.1875 2.09062Z" fill="white"/>
<path d="M17.2688 2.175C17.2031 2.24062 17.1562 2.37187 17.1562 2.48437C17.1562 2.74687 17.3344 2.90625 17.625 2.90625C17.9156 2.90625 18.0938 2.74687 18.0938 2.48437C18.0938 2.22187 17.9156 2.0625 17.625 2.0625C17.4938 2.0625 17.3344 2.10937 17.2688 2.175Z" fill="white"/>
<path d="M10.7247 5.06245C6.69344 5.7937 3.79657 9.41245 4.06844 13.3687C4.14344 14.4468 4.40594 15.5062 4.82782 16.3968L5.16532 17.0906L4.63094 18.675C3.84344 21.0468 3.89032 21.0937 6.26219 20.3062L7.84656 19.7718L8.54031 20.1093C9.72156 20.6625 10.5466 20.8406 12.0466 20.8406C13.2091 20.8406 13.4528 20.8125 14.2028 20.5875C16.8372 19.7906 18.8528 17.775 19.6497 15.1406C19.8747 14.3906 19.9028 14.1468 19.9028 12.9375C19.9028 11.7281 19.8747 11.4843 19.6497 10.7343C18.8528 8.09995 16.8091 6.0562 14.2028 5.29683C13.2653 5.01558 11.5872 4.91245 10.7247 5.06245ZM13.7341 6.12183C16.2559 6.82495 18.2153 8.82183 18.8528 11.3437C19.0216 12.0093 19.0216 13.8656 18.8528 14.5312C18.2059 17.0906 16.2278 19.0781 13.5934 19.8C13.3591 19.8562 12.6653 19.9125 12.0466 19.9125C10.7341 19.9125 10.0778 19.7718 8.92469 19.2187C8.49344 19.0125 8.04344 18.8437 7.94031 18.8437C7.82781 18.8437 7.20906 19.0125 6.57156 19.2187C5.92469 19.425 5.39032 19.575 5.37157 19.5656C5.36219 19.5468 5.51219 19.0125 5.71844 18.3656C5.92469 17.7281 6.09344 17.1093 6.09344 16.9968C6.09344 16.8937 5.92469 16.4437 5.71844 16.0125C5.16532 14.8593 5.02469 14.2031 5.02469 12.8906C5.02469 11.7093 5.09969 11.3062 5.50282 10.3125C6.34657 8.24058 8.35281 6.52495 10.4059 6.10308C10.6872 6.04683 11.0059 5.9812 11.1091 5.96245C11.4559 5.87808 13.2559 5.99058 13.7341 6.12183Z" fill="white"/>
<path d="M8.95251 8.05313C8.17439 8.54063 7.86501 9.19688 7.85564 10.4063C7.83689 12.8063 9.39314 15.2625 11.6619 16.4063C12.7494 16.95 13.5556 17.1562 14.6244 17.1562C15.6744 17.1562 16.2556 16.9406 16.7525 16.3688C17.4088 15.6281 17.315 15.3094 16.0869 14.0813C15.1494 13.1531 15.1025 13.125 14.6994 13.125C14.3431 13.125 14.2119 13.1813 13.8463 13.5C13.1994 14.0719 13.0588 14.0344 12.0275 13.0031C10.9963 11.9719 10.9588 11.8313 11.5306 11.1844C11.8494 10.8188 11.9056 10.6875 11.9056 10.3406C11.9056 9.94688 11.8681 9.89063 11.0431 9.0375C9.88064 7.82813 9.55251 7.67813 8.95251 8.05313ZM10.2369 9.53438C10.64 9.9375 10.9681 10.3031 10.9681 10.3688C10.9681 10.425 10.8556 10.5656 10.7244 10.6969C10.5931 10.8188 10.4244 11.0344 10.3494 11.175C10.1806 11.5031 10.1806 12.2156 10.3494 12.5438C10.5463 12.9188 12.29 14.5969 12.59 14.7094C13.2181 14.9438 13.8838 14.7938 14.3338 14.3063C14.465 14.175 14.6056 14.0625 14.6619 14.0625C14.7275 14.0625 15.0931 14.3906 15.4963 14.7938C16.2088 15.5063 16.2181 15.525 16.0681 15.7406C15.6744 16.2938 14.315 16.4063 13.0681 15.9844C11.09 15.3281 9.66501 13.8938 9.02751 11.9344C8.75564 11.1094 8.69939 9.8625 8.90564 9.46875C9.03689 9.21563 9.37439 8.8125 9.45876 8.8125C9.48689 8.8125 9.84314 9.14063 10.2369 9.53438Z" fill="white"/>
</g>
<defs>
<clipPath id="clip0_275_252">
<rect width="24" height="24" fill="white"/>
</clipPath>
</defs>
</svg>
